<svg width="40" height="40" viewBox="0 0 40 40" fill="none" xmlns="http://www.w3.org/2000/svg">
<path d="M31.7391 31.7699C30.7934 32.3159 30.0276 32.6334 29.4415 32.7223L28.0465 30.3061C28.5046 30.2356 28.9831 30.0563 29.4819 29.7683C30.3341 29.2763 30.7231 28.546 30.6488 27.5774L30.6319 27.2961L22.0137 22.2329L25.7237 20.0909L30.5736 23.2352L30.7295 23.1452L29.9638 17.6429L33.6894 15.4919L34.473 25.993C34.5778 27.4706 34.4252 28.6464 34.0153 29.5204C33.6098 30.3781 32.8511 31.1279 31.7391 31.7699Z" fill="#DEDBDB"/>
<path d="M25.4945 35.1048L22.9295 30.6621C22.8377 31.103 22.5933 31.5559 22.1965 32.0205C21.8101 32.4792 21.3571 32.8585 20.8374 33.1585C19.6319 33.8545 18.4295 34.0638 17.23 33.7863C16.0306 33.5089 15.0799 32.7622 14.3779 31.5463L12.2539 27.8674L15.5431 25.9684L17.3881 29.1641C17.7301 29.7564 18.1693 30.1333 18.7059 30.2946C19.2365 30.4456 19.7667 30.368 20.2967 30.062C20.6397 29.864 20.9212 29.5837 21.1414 29.221C21.3616 28.8584 21.4716 28.4969 21.4715 28.1367L19.0505 23.9434L22.3396 22.0444L28.7836 33.2058L25.4945 35.1048Z" fill="#DEDBDB"/>
<path d="M27.4716 16.9546C25.5906 18.0406 23.7703 18.3918 22.0107 18.0082C20.2556 17.6082 18.868 16.5248 17.848 14.7581C16.828 12.9914 16.5866 11.2533 17.1237 9.54366C17.6713 7.82804 18.8856 6.42723 20.7666 5.34123C22.6372 4.26123 24.4471 3.91604 26.1962 4.30566C27.9558 4.68929 29.3455 5.76444 30.3655 7.53113C31.3855 9.29783 31.6248 11.0442 31.0832 12.7702C30.5461 14.4798 29.3422 15.8746 27.4716 16.9546ZM23.2684 14.6425C24.1491 14.896 25.0312 14.7678 25.9146 14.2578C26.7979 13.7478 27.3448 13.051 27.5552 12.1675C27.776 11.2779 27.6164 10.3654 27.0764 9.43013C26.5364 8.49483 25.826 7.90039 24.9452 7.64681C24.0748 7.38723 23.1979 7.51244 22.3146 8.02244C21.4312 8.53244 20.8791 9.23223 20.6584 10.1218C20.4376 11.0114 20.5972 11.9238 21.1372 12.8591C21.6772 13.7944 22.3876 14.3889 23.2684 14.6425Z" fill="#DEDBDB"/>
<path d="M10.8229 26.2544L10.8971 18.3549L4.44126 15.057L8.18249 12.897L12.3545 15.2272L12.5104 15.1372L12.594 10.35L16.4132 8.14502L15.8543 15.4929L22.904 19.2794L19.0848 21.4844L14.5624 18.6914L14.4065 18.7814L14.5797 24.0854L10.8229 26.2544Z" fill="#DEDBDB"/>
<path fill-rule="evenodd" clip-rule="evenodd" d="M27.8189 16.7454L28.1739 19.2963L25.7835 17.7465L18.0391 22.2178L20.0216 23.3825L25.723 20.0908L30.5729 23.2351L30.7288 23.1451L29.9631 17.6428L33.6887 15.4918L34.4723 25.993C34.5771 27.4705 34.4245 28.6463 34.0146 29.5203C33.6091 30.378 32.8504 31.1278 31.7384 31.7698C30.7927 32.3158 30.0269 32.6333 29.4408 32.7222L28.0458 30.306C28.5039 30.2355 28.9824 30.0563 29.4812 29.7683C29.6295 29.6827 29.7638 29.5898 29.884 29.4898C30.4547 29.0149 30.7094 28.3774 30.6481 27.5773L30.6312 27.2961L22.672 22.62L24.6987 26.1303L28.1949 28.1843C28.003 28.2712 27.8528 28.3122 27.7416 28.3293L26.113 28.5799L28.7836 33.2056L27.7538 33.8002L28.3913 34.9044L29.7409 34.6996C30.7011 34.5539 31.7274 34.0856 32.7384 33.5019C34.0808 32.7268 35.1916 31.7101 35.8228 30.3752L35.8254 30.3695C36.4376 29.064 36.5844 27.503 36.4673 25.8514L35.4463 12.1677L28.9519 15.9173C28.6099 16.2102 28.2323 16.4862 27.8189 16.7454Z" fill="white"/>
<path fill-rule="evenodd" clip-rule="evenodd" d="M25.4941 35.1046L28.7833 33.2056L22.6717 22.6201L26.1665 24.6733L29.1967 29.9217C28.7997 30.1209 28.4159 30.2491 28.0455 30.3061L29.4405 32.7223C29.5285 32.7089 29.6205 32.6904 29.7167 32.6667C29.9809 32.6017 30.2758 32.4977 30.6014 32.3547L31.5153 33.9377L24.7621 37.8367L22.7158 34.2924C22.4395 34.5123 22.1464 34.7118 21.8371 34.8905C20.2547 35.8041 18.5373 36.1415 16.7789 35.7348C14.9613 35.3143 13.5819 34.1681 12.6455 32.5462L9.52148 27.1353L16.2748 23.2363L19.1198 28.1639C19.1785 28.2658 19.2259 28.3229 19.2543 28.3523C19.2616 28.3488 19.2698 28.3446 19.2789 28.3396L16.3181 23.2113L23.0713 19.3123L24.0713 21.0443L19.0501 23.9433L21.4711 28.1366C21.4712 28.4557 21.3849 28.7758 21.212 29.0969C21.1898 29.1382 21.1661 29.1796 21.141 29.2209C20.9209 29.5836 20.6393 29.8639 20.2964 30.0619C19.7664 30.3679 19.2361 30.4454 18.7055 30.2945C18.169 30.1331 17.7297 29.7563 17.3877 29.1639L15.5427 25.9683L12.2535 27.8673L14.3775 31.5462C15.0795 32.7621 16.0302 33.5088 17.2297 33.7862C18.4291 34.0637 19.6316 33.8544 20.8371 33.1584C21.1487 32.9785 21.4363 32.7701 21.7 32.5331C21.8761 32.3749 22.0414 32.204 22.1961 32.0204C22.593 31.5557 22.8373 31.1029 22.9291 30.6619L25.4941 35.1046Z" fill="white"/>
<path fill-rule="evenodd" clip-rule="evenodd" d="M16.0142 15.5781L22.905 19.2792L21.6852 19.9834C23.9933 20.4582 26.2847 19.9491 28.4715 18.6865C29.0077 18.3769 29.5076 18.039 29.9673 17.672L29.9633 17.6428L30.1021 17.5627C31.4684 16.4357 32.4653 15.0433 32.9912 13.3695C33.7226 11.0384 33.3579 8.71398 32.0975 6.53098C30.8381 4.34954 29.0102 2.87338 26.6266 2.35237C24.2935 1.83394 21.9756 2.33361 19.7665 3.60902C17.5881 4.86672 16.0053 6.58813 15.2588 8.81194L16.4142 8.14484L15.8694 15.3073C15.9162 15.3978 15.9644 15.4881 16.0142 15.5781ZM26.1962 4.30551C24.447 3.91589 22.6371 4.26107 20.7665 5.34107C18.8855 6.42707 17.6712 7.82789 17.1237 9.54351C16.5865 11.2531 16.8279 12.9913 17.8479 14.758C18.8679 16.5247 20.2555 17.608 22.0107 18.008C23.7702 18.3917 25.5905 18.0405 27.4715 16.9545C29.3421 15.8745 30.546 14.4797 31.0832 12.77C31.6247 11.044 31.3855 9.29767 30.3655 7.53098C29.3455 5.76429 27.9557 4.68913 26.1962 4.30551ZM27.5551 12.1673C27.7759 11.2777 27.6163 10.3653 27.0763 9.42998C26.5363 8.49467 25.8259 7.90023 24.9451 7.64665C24.0747 7.38708 23.1978 7.51229 22.3145 8.02229C21.4312 8.53229 20.8791 9.23208 20.6583 10.1217C20.4375 11.0112 20.5971 11.9237 21.1371 12.859C21.6771 13.7943 22.3875 14.3887 23.2683 14.6423C24.1491 14.8959 25.0312 14.7677 25.9145 14.2577C26.7978 13.7477 27.3447 13.0509 27.5551 12.1673ZM25.6117 11.6948L25.614 11.6855C25.6882 11.3867 25.6748 11.0026 25.3443 10.43C25.0137 9.85739 24.6877 9.65378 24.3918 9.56859L24.3827 9.56596L24.3735 9.56324C24.0975 9.48091 23.7862 9.48201 23.3145 9.75434C22.8432 10.0265 22.6739 10.3033 22.5994 10.6034C22.5252 10.9023 22.5386 11.2864 22.8692 11.859C23.1997 12.4316 23.5257 12.6352 23.8216 12.7204C24.1188 12.8059 24.4432 12.7977 24.9145 12.5256C25.3862 12.2533 25.5428 11.9842 25.6095 11.704L25.6117 11.6948Z" fill="white"/>
<path fill-rule="evenodd" clip-rule="evenodd" d="M8.79078 29.7373L8.88628 19.573L0.255859 15.1643L8.1668 10.5969L10.5667 11.9373L10.6148 9.18358L18.6955 4.51816L18.4955 7.14825C18.1896 7.49371 17.9247 7.85855 17.7009 8.24277C17.4804 8.62144 17.2997 9.01895 17.1589 9.43528C17.1467 9.47122 17.1349 9.50731 17.1233 9.54353C17.0616 9.73989 17.0102 9.93663 16.969 10.1337C16.6958 11.4427 16.8754 12.7682 17.508 14.1104C17.6095 14.3258 17.7227 14.5417 17.8476 14.758C17.8678 14.793 17.8882 14.8278 17.9087 14.8623C18.8002 16.3614 19.9648 17.353 21.4023 17.8372C21.5998 17.9037 21.8025 17.9607 22.0103 18.0081C22.0708 18.0213 22.1314 18.0336 22.1921 18.045C22.6268 18.1271 23.0651 18.1646 23.5072 18.1574C23.9278 18.1506 24.3517 18.1033 24.779 18.0157L27.0139 19.2161L19.0509 23.8136L16.5216 22.2514L16.6185 25.2179L8.79078 29.7373ZM14.4072 18.7812L14.5631 18.6912L19.0855 21.4842L22.9046 19.2792L15.8549 15.4928L16.4139 8.14487L12.5947 10.3499L12.5111 15.137L12.3552 15.227L8.18318 12.8969L4.44195 15.0569L10.8978 18.3548L10.8236 26.2542L14.5804 24.0852L14.4072 18.7812Z" fill="white"/>
</svg>
