<svg width="41" height="40" viewBox="0 0 41 40" fill="none" xmlns="http://www.w3.org/2000/svg">
<path d="M32.4833 31.7699C31.5376 32.3159 30.7717 32.6334 30.1857 32.7223L28.7907 30.3061C29.2488 30.2356 29.7273 30.0563 30.2261 29.7683C31.0783 29.2763 31.4672 28.546 31.3929 27.5774L31.376 27.2961L22.7578 22.2329L26.4679 20.0909L31.3178 23.2352L31.4737 23.1452L30.7079 17.6429L34.4336 15.4919L35.2171 25.993C35.3219 27.4706 35.1694 28.6464 34.7595 29.5204C34.354 30.3781 33.5952 31.1279 32.4833 31.7699Z" fill="#00A3FF"/>
<path d="M26.2386 35.1048L23.6736 30.6621C23.5818 31.103 23.3375 31.5559 22.9407 32.0205C22.5542 32.4792 22.1012 32.8585 21.5816 33.1585C20.3761 33.8545 19.1736 34.0638 17.9742 33.7863C16.7748 33.5089 15.824 32.7622 15.122 31.5463L12.998 27.8674L16.2872 25.9684L18.1322 29.1641C18.4742 29.7564 18.9135 30.1333 19.45 30.2946C19.9806 30.4456 20.5109 30.368 21.0409 30.062C21.3838 29.864 21.6654 29.5837 21.8855 29.221C22.1057 28.8584 22.2157 28.4969 22.2156 28.1367L19.7946 23.9434L23.0838 22.0444L29.5278 33.2058L26.2386 35.1048Z" fill="#00A3FF"/>
<path d="M28.2157 16.9546C26.3347 18.0406 24.5144 18.3918 22.7549 18.0082C20.9997 17.6082 19.6121 16.5248 18.5921 14.7581C17.5721 12.9914 17.3307 11.2533 17.8679 9.54366C18.4154 7.82804 19.6297 6.42723 21.5107 5.34123C23.3813 4.26123 25.1912 3.91604 26.9404 4.30566C28.6999 4.68929 30.0897 5.76444 31.1097 7.53113C32.1297 9.29783 32.3689 11.0442 31.8274 12.7702C31.2902 14.4798 30.0863 15.8746 28.2157 16.9546ZM24.0125 14.6425C24.8933 14.896 25.7754 14.7678 26.6587 14.2578C27.542 13.7478 28.0889 13.051 28.2993 12.1675C28.5201 11.2779 28.3605 10.3654 27.8205 9.43013C27.2805 8.49483 26.5701 7.90039 25.6893 7.64681C24.8189 7.38723 23.942 7.51244 23.0587 8.02244C22.1754 8.53244 21.6233 9.23223 21.4025 10.1218C21.1817 11.0114 21.3413 11.9238 21.8813 12.8591C22.4213 13.7944 23.1317 14.3889 24.0125 14.6425Z" fill="#00A3FF"/>
<path d="M11.567 26.2544L11.6413 18.3549L5.1854 15.057L8.92663 12.897L13.0987 15.2272L13.2545 15.1372L13.3382 10.35L17.1573 8.14502L16.5984 15.4929L23.6481 19.2794L19.8289 21.4844L15.3065 18.6914L15.1507 18.7814L15.3239 24.0854L11.567 26.2544Z" fill="#00A3FF"/>
<path fill-rule="evenodd" clip-rule="evenodd" d="M28.5631 16.7454L28.9181 19.2963L26.5277 17.7465L18.7832 22.2178L20.7658 23.3825L26.4672 20.0908L31.3171 23.2351L31.473 23.1451L30.7072 17.6428L34.4329 15.4918L35.2164 25.993C35.3212 27.4705 35.1687 28.6463 34.7588 29.5203C34.3533 30.378 33.5946 31.1278 32.4826 31.7698C31.5369 32.3158 30.771 32.6333 30.185 32.7222L28.79 30.306C29.2481 30.2355 29.7266 30.0563 30.2254 29.7683C30.3737 29.6827 30.5079 29.5898 30.6281 29.4898C31.1989 29.0149 31.4536 28.3774 31.3922 27.5773L31.3754 27.2961L23.4162 22.62L25.4428 26.1303L28.939 28.1843C28.7471 28.2712 28.597 28.3122 28.4857 28.3293L26.8571 28.5799L29.5277 33.2056L28.4979 33.8002L29.1354 34.9044L30.485 34.6996C31.4453 34.5539 32.4715 34.0856 33.4826 33.5019C34.825 32.7268 35.9357 31.7101 36.5669 30.3752L36.5696 30.3695C37.1818 29.064 37.3286 27.503 37.2114 25.8514L36.1904 12.1677L29.696 15.9173C29.3541 16.2102 28.9764 16.4862 28.5631 16.7454Z" fill="white"/>
<path fill-rule="evenodd" clip-rule="evenodd" d="M26.2382 35.1046L29.5274 33.2056L23.4158 22.6201L26.9107 24.6733L29.9408 29.9217C29.5438 30.1209 29.1601 30.2491 28.7896 30.3061L30.1846 32.7223C30.2726 32.7089 30.3647 32.6904 30.4608 32.6667C30.7251 32.6017 31.02 32.4977 31.3455 32.3547L32.2595 33.9377L25.5062 37.8367L23.4599 34.2924C23.1837 34.5123 22.8906 34.7118 22.5812 34.8905C20.9988 35.8041 19.2815 36.1415 17.5231 35.7348C15.7054 35.3143 14.326 34.1681 13.3896 32.5462L10.2656 27.1353L17.0189 23.2363L19.8639 28.1639C19.9227 28.2658 19.9701 28.3229 19.9985 28.3523C20.0058 28.3488 20.014 28.3446 20.0231 28.3396L17.0622 23.2113L23.8155 19.3123L24.8155 21.0443L19.7942 23.9433L22.2152 28.1366C22.2153 28.4557 22.129 28.7758 21.9562 29.0969C21.9339 29.1382 21.9103 29.1796 21.8852 29.2209C21.665 29.5836 21.3835 29.8639 21.0405 30.0619C20.5105 30.3679 19.9802 30.4454 19.4497 30.2945C18.9131 30.1331 18.4738 29.7563 18.1318 29.1639L16.2868 25.9683L12.9977 27.8673L15.1217 31.5462C15.8237 32.7621 16.7744 33.5088 17.9738 33.7862C19.1732 34.0637 20.3757 33.8544 21.5812 33.1584C21.8928 32.9785 22.1805 32.7701 22.4442 32.5331C22.6202 32.3749 22.7856 32.204 22.9403 32.0204C23.3371 31.5557 23.5814 31.1029 23.6732 30.6619L26.2382 35.1046Z" fill="white"/>
<path fill-rule="evenodd" clip-rule="evenodd" d="M16.7584 15.5781L23.6491 19.2792L22.4293 19.9834C24.7375 20.4582 27.0288 19.9491 29.2156 18.6865C29.7519 18.3769 30.2517 18.039 30.7115 17.672L30.7074 17.6428L30.8462 17.5627C32.2126 16.4357 33.2094 15.0433 33.7353 13.3695C34.4667 11.0384 34.102 8.71398 32.8417 6.53098C31.5822 4.34954 29.7543 2.87338 27.3707 2.35237C25.0376 1.83394 22.7197 2.33361 20.5106 3.60902C18.3322 4.86672 16.7495 6.58813 16.0029 8.81194L17.1584 8.14484L16.6135 15.3073C16.6603 15.3978 16.7086 15.4881 16.7584 15.5781ZM26.9403 4.30551C25.1911 3.91589 23.3813 4.26107 21.5106 5.34107C19.6296 6.42707 18.4154 7.82789 17.8678 9.54351C17.3307 11.2531 17.5721 12.9913 18.5921 14.758C19.6121 16.5247 20.9997 17.608 22.7548 18.008C24.5144 18.3917 26.3346 18.0405 28.2156 16.9545C30.0863 15.8745 31.2901 14.4797 31.8273 12.77C32.3688 11.044 32.1296 9.29767 31.1096 7.53098C30.0896 5.76429 28.6998 4.68913 26.9403 4.30551ZM28.2993 12.1673C28.5201 11.2777 28.3604 10.3653 27.8204 9.42998C27.2804 8.49467 26.5701 7.90023 25.6893 7.64665C24.8189 7.38708 23.942 7.51229 23.0586 8.02229C22.1753 8.53229 21.6232 9.23208 21.4024 10.1217C21.1816 11.0112 21.3412 11.9237 21.8812 12.859C22.4212 13.7943 23.1316 14.3887 24.0124 14.6423C24.8932 14.8959 25.7753 14.7677 26.6586 14.2577C27.542 13.7477 28.0889 13.0509 28.2993 12.1673ZM26.3559 11.6948L26.3582 11.6855C26.4323 11.3867 26.419 11.0026 26.0884 10.43C25.7578 9.85739 25.4319 9.65378 25.1359 9.56859L25.1268 9.56596L25.1177 9.56324C24.8416 9.48091 24.5303 9.48201 24.0586 9.75434C23.5873 10.0265 23.418 10.3033 23.3435 10.6034C23.2694 10.9023 23.2827 11.2864 23.6133 11.859C23.9439 12.4316 24.2698 12.6352 24.5658 12.7204C24.863 12.8059 25.1873 12.7977 25.6586 12.5256C26.1303 12.2533 26.2869 11.9842 26.3537 11.704L26.3559 11.6948Z" fill="white"/>
<path fill-rule="evenodd" clip-rule="evenodd" d="M9.53492 29.7373L9.63042 19.573L1 15.1643L8.91094 10.5969L11.3108 11.9373L11.3589 9.18358L19.4397 4.51816L19.2396 7.14825C18.9337 7.49371 18.6689 7.85855 18.4451 8.24277C18.2245 8.62144 18.0438 9.01895 17.903 9.43528C17.8909 9.47122 17.879 9.50731 17.8675 9.54353C17.8058 9.73989 17.7543 9.93663 17.7132 10.1337C17.4399 11.4427 17.6195 12.7682 18.2521 14.1104C18.3536 14.3258 18.4669 14.5417 18.5917 14.758C18.612 14.793 18.6323 14.8278 18.6528 14.8623C19.5444 16.3614 20.7089 17.353 22.1464 17.8372C22.3439 17.9037 22.5466 17.9607 22.7545 18.0081C22.815 18.0213 22.8756 18.0336 22.9362 18.045C23.3709 18.1271 23.8093 18.1646 24.2513 18.1574C24.6719 18.1506 25.0959 18.1033 25.5232 18.0157L27.7581 19.2161L19.7951 23.8136L17.2657 22.2514L17.3626 25.2179L9.53492 29.7373ZM15.1513 18.7812L15.3072 18.6912L19.8296 21.4842L23.6488 19.2792L16.5991 15.4928L17.158 8.14487L13.3388 10.3499L13.2552 15.137L13.0993 15.227L8.92732 12.8969L5.18609 15.0569L11.642 18.3548L11.5677 26.2542L15.3246 24.0852L15.1513 18.7812Z" fill="white"/>
</svg>
